<?xml version="1.0" encoding="UTF-8"?>
<svg version="1.1" xmlns="http://www.w3.org/2000/svg" width="48" height="48">
<path d="M0 0 C2.93081463 1.28637895 5.63522123 2.85104337 8.375 4.5 C12.149375 6.7275 12.149375 6.7275 16 9 C16 16.92 16 24.84 16 33 C13.48375 34.485 10.9675 35.97 8.375 37.5 C7.59431152 37.96986328 6.81362305 38.43972656 6.00927734 38.92382812 C1.88556361 41.29818272 -1.13808451 42.91160915 -6 42 C-8.93081463 40.71362105 -11.63522123 39.14895663 -14.375 37.5 C-16.89125 36.015 -19.4075 34.53 -22 33 C-22 25.08 -22 17.16 -22 9 C-19.48375 7.515 -16.9675 6.03 -14.375 4.5 C-13.59431152 4.03013672 -12.81362305 3.56027344 -12.00927734 3.07617188 C-7.88556361 0.70181728 -4.86191549 -0.91160915 0 0 Z " fill="#0285D2" transform="translate(27,3)"/>
<path d="M0 0 C3.75212276 2.01502889 5.63644095 3.45466142 8 7 C6.25 8.5625 6.25 8.5625 4 10 C1.83031791 9.75203633 0.55766393 9.55766393 -1 8 C-5.12795128 7.62418498 -5.12795128 7.62418498 -8.875 9.125 C-10.52854531 11.88090884 -10.39365568 13.85075452 -10 17 C-9 19 -9 19 -7 20 C-3.95788569 20.4167552 -3.95788569 20.4167552 -1 20 C-0.34 19.34 0.32 18.68 1 18 C3.61580479 18.3269756 5.64078137 18.82039068 8 20 C6.48209259 24.25014075 3.93622829 25.95899274 0 28 C-4.36240865 28.86900571 -7.27055791 28.36472104 -11.25 26.375 C-14.7168509 23.3809015 -17.47238201 20.69192851 -18.3828125 16.046875 C-18.6746341 10.94972447 -17.39090366 7.9263095 -14 4 C-9.53672431 0.14535282 -5.74493622 -1.1558537 0 0 Z " fill="#F5F9FC" transform="translate(28,10)"/>
<path d="M0 0 C1.63741012 1.14122524 3.23319604 2.34212876 4.8125 3.5625 C8.77969545 5.8512666 11.58474022 6.34913972 16.0625 5.4375 C19.37430732 3.6746888 19.37430732 3.6746888 22.0625 1.4375 C23.0525 0.7775 24.0425 0.1175 25.0625 -0.5625 C27.0425 0.4275 29.0225 1.4175 31.0625 2.4375 C31.0625 3.0975 31.0625 3.7575 31.0625 4.4375 C28.52936886 5.95376852 25.98762202 7.45030099 23.4375 8.9375 C22.36822266 9.58138672 22.36822266 9.58138672 21.27734375 10.23828125 C17.0865767 12.66046771 14.01276179 14.36567408 9.0625 13.4375 C6.13386118 12.15207604 3.4249408 10.58590468 0.6875 8.9375 C-0.04855469 8.50824219 -0.78460938 8.07898437 -1.54296875 7.63671875 C-3.34794544 6.58186224 -5.14368718 5.51123119 -6.9375 4.4375 C-6.9375 3.7775 -6.9375 3.1175 -6.9375 2.4375 C-2.76971477 -0.80411074 -2.76971477 -0.80411074 0 0 Z " fill="#02559E" transform="translate(11.9375,31.5625)"/>
<path d="M0 0 C2.375 1.875 2.375 1.875 4 4 C4 4.66 4 5.32 4 6 C3.34 6 2.68 6 2 6 C2 6.66 2 7.32 2 8 C2.66 8 3.32 8 4 8 C4 8.66 4 9.32 4 10 C4.66 10 5.32 10 6 10 C6 9.34 6 8.68 6 8 C6.99 7.67 7.98 7.34 9 7 C9.66 7.33 10.32 7.66 11 8 C11 8.66 11 9.32 11 10 C11.66 10 12.32 10 13 10 C13 9.34 13 8.68 13 8 C13.99 7.67 14.98 7.34 16 7 C16 10.3 16 13.6 16 17 C12.82666905 16.04062088 10.17489648 15.11243345 7.375 13.3125 C5.11925461 11.76755817 5.11925461 11.76755817 2.75 12.25 C1.00773731 12.8684658 1.00773731 12.8684658 0 14 C-3.56299065 14.39588785 -5.37639795 14.42667508 -8.375 12.375 C-10.48706506 9.28813568 -10.61195145 7.6717087 -10 4 C-7.21921757 -0.06422047 -4.81255755 -0.80209293 0 0 Z " fill="#0174BF" transform="translate(27,17)"/>
<path d="M0 0 C0.66 0 1.32 0 2 0 C2 3.96 2 7.92 2 12 C1.01 12.33 0.02 12.66 -1 13 C-1 13.66 -1 14.32 -1 15 C-1.66 15 -2.32 15 -3 15 C-3 14.34 -3 13.68 -3 13 C-4.65 13 -6.3 13 -8 13 C-8 13.66 -8 14.32 -8 15 C-8.66 15 -9.32 15 -10 15 C-10 14.34 -10 13.68 -10 13 C-10.66 13 -11.32 13 -12 13 C-12 12.34 -12 11.68 -12 11 C-11.34 11 -10.68 11 -10 11 C-10.33 10.01 -10.66 9.02 -11 8 C-10.28972656 7.59007812 -9.57945313 7.18015625 -8.84765625 6.7578125 C-7.92855469 6.21898437 -7.00945313 5.68015625 -6.0625 5.125 C-5.14597656 4.59132813 -4.22945312 4.05765625 -3.28515625 3.5078125 C-0.89299704 2.20287437 -0.89299704 2.20287437 0 0 Z " fill="#0276C0" transform="translate(41,12)"/>
<path d="M0 0 C0.66 1.32 1.32 2.64 2 4 C0.37829621 5.00533667 -1.24747237 6.00411907 -2.875 7 C-4.23238281 7.8353125 -4.23238281 7.8353125 -5.6171875 8.6875 C-8 10 -8 10 -10 10 C-10.32152515 6.46322336 -10.4131192 4.6037896 -8.375 1.625 C-5.3962104 -0.4131192 -3.53677664 -0.32152515 0 0 Z " fill="#0A8AD5" transform="translate(27,17)"/>
<path d="M0 0 C1.74033771 0.7640507 3.42958527 1.64194955 5.109375 2.53125 C3.984375 4.53125 3.984375 4.53125 2.109375 6.53125 C-0.890625 7.03125 -0.890625 7.03125 -3.890625 6.53125 C-5.765625 4.53125 -5.765625 4.53125 -6.890625 2.53125 C-2.91388081 -0.72244979 -2.91388081 -0.72244979 0 0 Z " fill="#085AA1" transform="translate(24.890625,24.46875)"/>
<path d="M0 0 C0.66 0 1.32 0 2 0 C2 0.66 2 1.32 2 2 C2.66 2 3.32 2 4 2 C4 2.66 4 3.32 4 4 C3.34 4 2.68 4 2 4 C2 4.66 2 5.32 2 6 C1.34 6 0.68 6 0 6 C0 5.34 0 4.68 0 4 C-0.66 4 -1.32 4 -2 4 C-2 3.34 -2 2.68 -2 2 C-1.34 2 -0.68 2 0 2 C0 1.34 0 0.68 0 0 Z " fill="#FFFFFF" transform="translate(38,21)"/>
<path d="M0 0 C0.66 0 1.32 0 2 0 C2 0.66 2 1.32 2 2 C2.66 2 3.32 2 4 2 C4 2.66 4 3.32 4 4 C3.34 4 2.68 4 2 4 C2 4.66 2 5.32 2 6 C1.34 6 0.68 6 0 6 C0 5.34 0 4.68 0 4 C-0.66 4 -1.32 4 -2 4 C-2 3.34 -2 2.68 -2 2 C-1.34 2 -0.68 2 0 2 C0 1.34 0 0.68 0 0 Z " fill="#FFFFFF" transform="translate(31,21)"/>
</svg>
