<?xml version="1.0" encoding="UTF-8"?>
<svg version="1.1" xmlns="http://www.w3.org/2000/svg" width="40" height="40">
<path d="M0 0 C3.16897447 0.06914126 6.08498915 0.52939164 9.1875 1.1875 C9.5175 0.8575 9.8475 0.5275 10.1875 0.1875 C15.92361111 -0.08564815 15.92361111 -0.08564815 18.1875 0.1875 C20.1875 2.1875 20.1875 2.1875 20.3828125 4.3515625 C20.35960937 5.16367188 20.33640625 5.97578125 20.3125 6.8125 C20.29445312 7.62976563 20.27640625 8.44703125 20.2578125 9.2890625 C20.23460937 9.91554688 20.21140625 10.54203125 20.1875 11.1875 C20.97125 11.47625 21.755 11.765 22.5625 12.0625 C25.1875 13.1875 25.1875 13.1875 27.1875 15.1875 C27.625 18.0625 27.625 18.0625 27.1875 21.1875 C24.8125 23.5625 24.8125 23.5625 22.1875 25.1875 C21.5275 25.1875 20.8675 25.1875 20.1875 25.1875 C20.21070313 25.81398438 20.23390625 26.44046875 20.2578125 27.0859375 C20.27585938 27.90320313 20.29390625 28.72046875 20.3125 29.5625 C20.33570313 30.37460937 20.35890625 31.18671875 20.3828125 32.0234375 C20.1875 34.1875 20.1875 34.1875 18.1875 36.1875 C13.58731112 36.4137388 9.69038957 36.14265839 5.1875 35.1875 C4.8575 35.5175 4.5275 35.8475 4.1875 36.1875 C-1.54861111 36.46064815 -1.54861111 36.46064815 -3.8125 36.1875 C-5.8125 34.1875 -5.8125 34.1875 -6.0078125 32.0234375 C-5.98460937 31.21132813 -5.96140625 30.39921875 -5.9375 29.5625 C-5.91945313 28.74523437 -5.90140625 27.92796875 -5.8828125 27.0859375 C-5.85960937 26.45945312 -5.83640625 25.83296875 -5.8125 25.1875 C-6.988125 24.754375 -6.988125 24.754375 -8.1875 24.3125 C-10.8125 23.1875 -10.8125 23.1875 -12.8125 21.1875 C-13.25 18.3125 -13.25 18.3125 -12.8125 15.1875 C-10.4375 12.8125 -10.4375 12.8125 -7.8125 11.1875 C-7.1525 11.1875 -6.4925 11.1875 -5.8125 11.1875 C-5.83570313 10.56101562 -5.85890625 9.93453125 -5.8828125 9.2890625 C-5.90988281 8.06316406 -5.90988281 8.06316406 -5.9375 6.8125 C-5.96070313 6.00039062 -5.98390625 5.18828125 -6.0078125 4.3515625 C-5.63364633 0.20580133 -3.90108803 0.19185679 0 0 Z M-1.8125 4.1875 C-2.1425 5.5075 -2.4725 6.8275 -2.8125 8.1875 C-0.3375 8.6825 -0.3375 8.6825 2.1875 9.1875 C2.5175 7.8675 2.8475 6.5475 3.1875 5.1875 C1.5375 4.8575 -0.1125 4.5275 -1.8125 4.1875 Z M12.1875 4.1875 C11.8575 5.1775 11.5275 6.1675 11.1875 7.1875 C11.5175 7.8475 11.8475 8.5075 12.1875 9.1875 C13.8375 8.8575 15.4875 8.5275 17.1875 8.1875 C16.8575 6.8675 16.5275 5.5475 16.1875 4.1875 C14.8675 4.1875 13.5475 4.1875 12.1875 4.1875 Z M3.375 13.375 C2.03545432 15.41956972 1.40939073 16.74670199 1.1875 19.1875 C1.61209932 21.45346664 1.61209932 21.45346664 3.1875 23.1875 C6.09754903 24.26973366 6.09754903 24.26973366 9.1875 24.1875 C11.35314375 22.76862996 12.00714253 21.6175832 13 19.25 C13.25047705 16.49475241 12.91240301 15.36237771 11.1875 13.1875 C7.13667757 11.85137884 7.13667757 11.85137884 3.375 13.375 Z M-6.8125 15.1875 C-7.4725 15.8475 -8.1325 16.5075 -8.8125 17.1875 C-8.8125 18.1775 -8.8125 19.1675 -8.8125 20.1875 C-7.4925 20.5175 -6.1725 20.8475 -4.8125 21.1875 C-3.80138907 18.13836772 -3.80138907 18.13836772 -4.8125 15.1875 C-5.4725 15.1875 -6.1325 15.1875 -6.8125 15.1875 Z M19.1875 15.1875 C18.17638907 18.23663228 18.17638907 18.23663228 19.1875 21.1875 C20.5075 20.5275 21.8275 19.8675 23.1875 19.1875 C23.1875 18.1975 23.1875 17.2075 23.1875 16.1875 C21.8675 15.8575 20.5475 15.5275 19.1875 15.1875 Z M-1.8125 27.1875 C-2.1425 27.8475 -2.4725 28.5075 -2.8125 29.1875 C-2.4825 30.1775 -2.1525 31.1675 -1.8125 32.1875 C-0.1625 31.8575 1.4875 31.5275 3.1875 31.1875 C2.8575 29.8675 2.5275 28.5475 2.1875 27.1875 C0.8675 27.1875 -0.4525 27.1875 -1.8125 27.1875 Z M12.1875 27.1875 C11.8575 28.5075 11.5275 29.8275 11.1875 31.1875 C13.6625 31.6825 13.6625 31.6825 16.1875 32.1875 C16.5175 30.8675 16.8475 29.5475 17.1875 28.1875 C15.5375 27.8575 13.8875 27.5275 12.1875 27.1875 Z " fill="#4F79B9" transform="translate(12.8125,1.8125)"/>
<path d="M0 0 C0.33 0 0.66 0 1 0 C1 2.31 1 4.62 1 7 C2.7634375 6.505 2.7634375 6.505 4.5625 6 C11.21487004 4.36033133 16.57848581 4.90317904 23 7 C23 4.69 23 2.38 23 0 C23.33 0 23.66 0 24 0 C24 2.64 24 5.28 24 8 C26.475 8.99 26.475 8.99 29 10 C28.34 10.33 27.68 10.66 27 11 C25.68 10.34 24.36 9.68 23 9 C23 12.3 23 15.6 23 19 C24.98 18.34 26.96 17.68 29 17 C27.625 18.5 27.625 18.5 26 20 C25.34 20 24.68 20 24 20 C24 22.64 24 25.28 24 28 C23.67 28 23.34 28 23 28 C23 25.69 23 23.38 23 21 C21.824375 21.33 20.64875 21.66 19.4375 22 C12.78512996 23.63966867 7.42151419 23.09682096 1 21 C1 23.31 1 25.62 1 28 C0.67 28 0.34 28 0 28 C0 25.36 0 22.72 0 20 C-2.475 19.01 -2.475 19.01 -5 18 C-4.34 17.67 -3.68 17.34 -3 17 C-1.68 17.66 -0.36 18.32 1 19 C1 15.7 1 12.4 1 9 C-0.98 9.66 -2.96 10.32 -5 11 C-3.625 9.5 -3.625 9.5 -2 8 C-1.34 8 -0.68 8 0 8 C0 5.36 0 2.72 0 0 Z M8.1875 9.1875 C6.84795432 11.23206972 6.22189073 12.55920199 6 15 C6.42459932 17.26596664 6.42459932 17.26596664 8 19 C10.91004903 20.08223366 10.91004903 20.08223366 14 20 C16.16564375 18.58112996 16.81964253 17.4300832 17.8125 15.0625 C18.06297705 12.30725241 17.72490301 11.17487771 16 9 C11.94917757 7.66387884 11.94917757 7.66387884 8.1875 9.1875 Z " fill="#6590CB" transform="translate(8,6)"/>
<path d="M0 0 C0.9178125 0.08378906 1.835625 0.16757812 2.78125 0.25390625 C9.38542041 0.8019414 15.46668574 1.17599657 22 0 C22.02689216 1.47906892 22.04634621 2.95827483 22.0625 4.4375 C22.07410156 5.26121094 22.08570312 6.08492187 22.09765625 6.93359375 C22 9 22 9 21 10 C17.68702011 9.61773309 14.48650457 9.12162614 11.25 8.3125 C8.71980215 7.70732241 8.71980215 7.70732241 6 10 C3.375 10.1875 3.375 10.1875 1 10 C0 9 0 9 -0.09765625 6.93359375 C-0.08605469 6.10988281 -0.07445312 5.28617188 -0.0625 4.4375 C-0.05347656 3.61121094 -0.04445313 2.78492188 -0.03515625 1.93359375 C-0.02355469 1.29550781 -0.01195312 0.65742188 0 0 Z M2 2 C1.67 2.66 1.34 3.32 1 4 C1.33 4.99 1.66 5.98 2 7 C3.65 6.67 5.3 6.34 7 6 C6.67 4.68 6.34 3.36 6 2 C4.68 2 3.36 2 2 2 Z M16 2 C15.67 3.32 15.34 4.64 15 6 C17.475 6.495 17.475 6.495 20 7 C20.33 5.68 20.66 4.36 21 3 C19.35 2.67 17.7 2.34 16 2 Z " fill="#5B85C4" transform="translate(9,27)"/>
<path d="M0 0 C3.31297989 0.38226691 6.51349543 0.87837386 9.75 1.6875 C12.28019785 2.29267759 12.28019785 2.29267759 15 0 C17.625 -0.1875 17.625 -0.1875 20 0 C21 1 21 1 21.09765625 3.06640625 C21.08605469 3.89011719 21.07445313 4.71382813 21.0625 5.5625 C21.05347656 6.38878906 21.04445313 7.21507812 21.03515625 8.06640625 C21.02355469 8.70449219 21.01195313 9.34257812 21 10 C20.0821875 9.91621094 19.164375 9.83242187 18.21875 9.74609375 C11.61457959 9.1980586 5.53331426 8.82400343 -1 10 C-1.02689216 8.52093108 -1.04634621 7.04172517 -1.0625 5.5625 C-1.07410156 4.73878906 -1.08570313 3.91507812 -1.09765625 3.06640625 C-1 1 -1 1 0 0 Z M1 3 C0.67 4.32 0.34 5.64 0 7 C2.475 7.495 2.475 7.495 5 8 C5.33 6.68 5.66 5.36 6 4 C4.35 3.67 2.7 3.34 1 3 Z M15 3 C14.67 3.99 14.34 4.98 14 6 C14.33 6.66 14.66 7.32 15 8 C16.65 7.67 18.3 7.34 20 7 C19.67 5.68 19.34 4.36 19 3 C17.68 3 16.36 3 15 3 Z " fill="#5882C5" transform="translate(10,3)"/>
<path d="M0 0 C3 0.125 3 0.125 4 1.125 C4.125 4.125 4.125 4.125 4 7.125 C3 8.125 3 8.125 0 8.25 C-3 8.125 -3 8.125 -4 7.125 C-4.125 4.125 -4.125 4.125 -4 1.125 C-3 0.125 -3 0.125 0 0 Z " fill="#6A96D0" transform="translate(20,15.875)"/>
<path d="M0 0 C3.3125 0.1875 3.3125 0.1875 7 1 C8.9375 3.5625 8.9375 3.5625 10 6 C6.69298952 9.91941982 6.69298952 9.91941982 3.3125 10.3125 C1 10 1 10 0 9 C-0.07179964 7.48071962 -0.08392007 5.95832518 -0.0625 4.4375 C-0.05347656 3.61121094 -0.04445313 2.78492188 -0.03515625 1.93359375 C-0.02355469 1.29550781 -0.01195312 0.65742188 0 0 Z M2 2 C1.67 2.66 1.34 3.32 1 4 C1.33 4.99 1.66 5.98 2 7 C3.65 6.67 5.3 6.34 7 6 C6.67 4.68 6.34 3.36 6 2 C4.68 2 3.36 2 2 2 Z " fill="#5A84C2" transform="translate(9,27)"/>
<path d="M0 0 C2.3125 0.3125 2.3125 0.3125 3.3125 1.3125 C3.38429964 2.83178038 3.39642007 4.35417482 3.375 5.875 C3.36597656 6.70128906 3.35695313 7.52757812 3.34765625 8.37890625 C3.33605469 9.01699219 3.32445312 9.65507812 3.3125 10.3125 C0 10.125 0 10.125 -3.6875 9.3125 C-5.625 6.75 -5.625 6.75 -6.6875 4.3125 C-3.38048952 0.39308018 -3.38048952 0.39308018 0 0 Z M-2.6875 3.3125 C-3.0175 4.3025 -3.3475 5.2925 -3.6875 6.3125 C-3.3575 6.9725 -3.0275 7.6325 -2.6875 8.3125 C-1.0375 7.9825 0.6125 7.6525 2.3125 7.3125 C1.9825 5.9925 1.6525 4.6725 1.3125 3.3125 C-0.0075 3.3125 -1.3275 3.3125 -2.6875 3.3125 Z " fill="#5780C6" transform="translate(27.6875,2.6875)"/>
<path d="M0 0 C0.33 0 0.66 0 1 0 C1 2.64 1 5.28 1 8 C2.65 8.66 4.3 9.32 6 10 C3.3333581 11.33332095 1.83319697 10.67102033 -1 10 C-1 9.34 -1 8.68 -1 8 C-4.11785113 8.64644661 -4.11785113 8.64644661 -5 11 C-5.66 10.01 -6.32 9.02 -7 8 C-9.19454681 7.42006301 -9.19454681 7.42006301 -11.625 7.3125 C-12.44226563 7.24675781 -13.25953125 7.18101563 -14.1015625 7.11328125 C-14.72804688 7.07589844 -15.35453125 7.03851562 -16 7 C-14 5 -14 5 -10.8125 4.75 C-6.83431685 5.01086447 -3.76742668 5.76981986 0 7 C0 4.69 0 2.38 0 0 Z " fill="#7EAAE4" transform="translate(31,6)"/>
<path d="M0 0 C1.32 0 2.64 0 4 0 C5.1671568 3.50147041 5.13357453 6.32670036 5 10 C4.67 10.66 4.34 11.32 4 12 C2.68 12 1.36 12 0 12 C0 8.04 0 4.08 0 0 Z " fill="#6591CB" transform="translate(26,14)"/>
<path d="M0 0 C-1.65 0.66 -3.3 1.32 -5 2 C-5 4.64 -5 7.28 -5 10 C-5.33 10 -5.66 10 -6 10 C-6 7.69 -6 5.38 -6 3 C-7.7634375 3.495 -7.7634375 3.495 -9.5625 4 C-13.5011676 4.9969533 -16.95139129 5.16869203 -21 5 C-21.33 4.34 -21.66 3.68 -22 3 C-21.06027344 2.90912109 -21.06027344 2.90912109 -20.1015625 2.81640625 C-18.87566406 2.69072266 -18.87566406 2.69072266 -17.625 2.5625 C-16.81289063 2.48128906 -16.00078125 2.40007813 -15.1640625 2.31640625 C-12.95727195 2.10909886 -12.95727195 2.10909886 -11 1 C-8.875 1.4375 -8.875 1.4375 -7 2 C-6.67 1.34 -6.34 0.68 -6 0 C-2.49056604 -1.24528302 -2.49056604 -1.24528302 0 0 Z " fill="#7FABE4" transform="translate(37,24)"/>
<path d="M0 0 C1.875 0.25 1.875 0.25 4 1 C5.25 3.0625 5.25 3.0625 6 5 C5 6 5 6 1.9375 6.0625 C0.4834375 6.0315625 0.4834375 6.0315625 -1 6 C-0.67 4.02 -0.34 2.04 0 0 Z " fill="#6894CF" transform="translate(18,6)"/>
<path d="M0 0 C1.98 0 3.96 0 6 0 C5.67 1.98 5.34 3.96 5 6 C3.68 5.67 2.36 5.34 1 5 C0.67 3.35 0.34 1.7 0 0 Z " fill="#6995CF" transform="translate(17,28)"/>
<path d="M0 0 C2 1 2 1 2.8125 3.375 C3 6 3 6 1.5625 7.8125 C1.046875 8.204375 0.53125 8.59625 0 9 C-0.99 8.67 -1.98 8.34 -3 8 C-2.34 7.67 -1.68 7.34 -1 7 C-0.59270772 4.67843403 -0.25561323 2.3431213 0 0 Z " fill="#6591CB" transform="translate(37,17)"/>
</svg>
